# xmcd
#
# Track frame offsets:
#	150
#	22464
#	39804
#	54954
#	72588
#	88629
#	122345
#	142215
#	190980
#
# Disc length: 4022 seconds
#
# Revision: 1
# Processed by: cddbd v1.5.2PL0 Copyright (c) Steve Scherf et al.
# Submitted via: EZCDAudioConverter 2.1.7.1
#
DISCID=7f0fb409
DTITLE=V/A - Real World Notes V12
DYEAR=1900
DGENRE=
TTITLE0=Dr. Hukwe Zawose and Michael Brook - Assembly
TTITLE1=Afro Celt Sound System featuring Peter Gabriel - When You're Falling [
TTITLE1=Radio Edit]
TTITLE2=Blind Boys Of Alabama - Run On For A Long Time
TTITLE3=Ayub Ogada - 10% [Spirit Version]
TTITLE4=Joseph Arthur - In The Sun [Ian Broudie Single Mix]
TTITLE5=Rizwan-Muazzam Qawwali - Dil Wali Gal Karni - Talk Of The Heart
TTITLE6=Hamid Baroudi - Baraka
TTITLE7=Temple Of Sound and Rizwan-Muazzam Qawwali - Paradise Of Nada [Adrian Sh
TTITLE7=erwood Remix]
TTITLE8=Various Artist - Ecd Track09
EXTD=
EXTT0=
EXTT1=
EXTT2=
EXTT3=
EXTT4=
EXTT5=
EXTT6=
EXTT7=
EXTT8=
PLAYORDER=
